<svg viewBox="0 0 1092 1092" xmlns="http://www.w3.org/2000/svg"><g fill="#004153"><path d="m546 0c-301.547 0-546 244.453-546 546s244.453 546 546 546 546-244.452 546-546c0-226.881-244.452-546-546-546zm316.667 899.333h-633.334v-661.333h186.334v-.333h336v.333h27.666l83.334 76.679z"/><path d="m727 498.333v-233h-394v233zm-49-205.666v177.333h-82.667v-177.333z"/><path d="m791.262 847.639c0 11.395-10.865 20.633-24.268 20.633h-458.661v-281.009c0-11.26 10.617-20.44 23.858-20.63l434.393-6.233c13.561-.2 24.678 9.1 24.678 20.631z"/></g></svg>