<svg xmlns="http://www.w3.org/2000/svg" viewBox="0 0 1018.333 1018.333">
  <defs>
    <style>
      .cls-1 {
        fill: #004153;
      }
    </style>
  </defs>
  <g id="Layer_2" data-name="Layer 2">
    <g id="Layer_1-2" data-name="Layer 1">
      <g>
        <path class="cls-1" d="M603.238,8.431C248.781-54.987-54.987,248.781,8.431,603.238,45.462,810.208,208.125,972.872,415.1,1009.9c354.456,63.419,658.225-240.35,594.806-594.807C972.872,208.125,810.208,45.461,603.238,8.431Zm-498.571,493.9v-61a67,67,0,0,1,67-67h371l-32.667-4c-61.983-144.128-62.208-188.746-46.68-198.915,3.369-2.206,8.774-3.639,14.145-9.5,15.358-16.769,8.929-46.28.707-69.247l34.5,9c7.749,22.554,13.809,51.533-.667,68-5.063,5.759-10.158,7.167-13.333,9.333-14.637,9.986-14.425,53.8,44,195.333h159.5c106.867,0,193.5,86.633,193.5,193.5v95.5a51,51,0,0,1-51,51h-528C199.582,714.333,104.667,619.418,104.667,502.333Z"/>
        <circle class="cls-1" cx="779.667" cy="494.167" r="60.5"/>
        <path class="cls-1" d="M250.181,449.333h38.51a18.024,18.024,0,0,1,18.024,18.024v30.035a18.024,18.024,0,0,0,18.024,18.024h27.28a18.023,18.023,0,0,1,18.024,18.024v31.411a18.024,18.024,0,0,1-18.024,18.024H325.751a18.023,18.023,0,0,0-18.02,17.656l-.656,32.146a18.023,18.023,0,0,1-18.02,17.656H249.019A18.024,18.024,0,0,1,231,632.309V602.275a18.024,18.024,0,0,0-18.024-18.024h-27.28a18.023,18.023,0,0,1-18.024-18.024V534.452a18.023,18.023,0,0,1,17.656-18.02l31.009-.633a18.024,18.024,0,0,0,17.621-19.144l-1.761-28.173A18.024,18.024,0,0,1,250.181,449.333Z"/>
        <circle class="cls-1" cx="646.667" cy="596.833" r="60.5"/>
      </g>
    </g>
  </g>
</svg>
