<svg viewBox="0 0 1018.333 1018.333" xmlns="http://www.w3.org/2000/svg"><g fill="#004153"><path d="m603.238 8.431c-354.457-63.418-658.225 240.35-594.807 594.807 37.031 206.97 199.694 369.634 406.669 406.662 354.456 63.419 658.225-240.35 594.806-594.807-37.034-206.968-199.698-369.632-406.668-406.662zm-498.571 493.9v-61a67 67 0 0 1 67-67h371l-32.667-4c-61.983-144.128-62.208-188.746-46.68-198.915 3.369-2.206 8.774-3.639 14.145-9.5 15.358-16.769 8.929-46.28.707-69.247l34.5 9c7.749 22.554 13.809 51.533-.667 68-5.063 5.759-10.158 7.167-13.333 9.333-14.637 9.986-14.425 53.8 44 195.333h159.5c106.867 0 193.5 86.633 193.5 193.5v95.5a51 51 0 0 1 -51 51h-528c-117.09-.002-212.005-94.917-212.005-212.002z"/><circle cx="779.667" cy="494.167" r="60.5"/><path d="m250.181 449.333h38.51a18.024 18.024 0 0 1 18.024 18.024v30.035a18.024 18.024 0 0 0 18.024 18.024h27.28a18.023 18.023 0 0 1 18.024 18.024v31.411a18.024 18.024 0 0 1 -18.024 18.024h-26.268a18.023 18.023 0 0 0 -18.02 17.656l-.656 32.146a18.023 18.023 0 0 1 -18.02 17.656h-40.036a18.024 18.024 0 0 1 -18.019-18.024v-30.034a18.024 18.024 0 0 0 -18.024-18.024h-27.28a18.023 18.023 0 0 1 -18.024-18.024v-31.775a18.023 18.023 0 0 1 17.656-18.02l31.009-.633a18.024 18.024 0 0 0 17.621-19.144l-1.761-28.173a18.024 18.024 0 0 1 17.984-19.149z"/><circle cx="646.667" cy="596.833" r="60.5"/></g></svg>