<svg viewBox="0 0 672 672" xmlns="http://www.w3.org/2000/svg"><path d="m336 0c-185.568 0-336 150.432-336 336s150.432 336 336 336 336-150.432 336-336-150.432-336-336-336zm.333 574.667c-131.812 0-238.666-106.855-238.666-238.667s106.854-238.667 238.666-238.667 238.667 106.855 238.667 238.667-106.855 238.667-238.667 238.667z" fill="#004153"/><g fill="none" stroke="#004153" stroke-miterlimit="10" stroke-width="10"><path d="m337.812 576.667c-3.333-7.667 1.08-476.523 1.08-476.523 302.667 226.333 2.253 484.189-1.08 476.523z"/><path d="m337.812 97.333c3.353 7.712-1.479 477.334-1.479 477.334-304.433-227.654-1.874-485.045 1.479-477.334z"/><path d="m237.5 553.622c-5.156 4.4 95.431-73.445 200.627 0"/><path d="m236.017 117.667c-3.29-3.117 106.9 72.644 200.627 0"/></g></svg>